HIERARCHY
ROOT pelvis
{
  OFFSET 0 100 0
  CHANNELS 6 Xposition Yposition Zposition Zrotation Xrotation Yrotation
  JOINT pelvis_right_femur
  {
    OFFSET -10.78128 -3.44521 -0.5502486
    CHANNELS 3 Zrotation Xrotation Yrotation
    JOINT right_femur_tibia
    {
      OFFSET -0.8047443 -44.0398 -0.1307829
      CHANNELS 3 Zrotation Xrotation Yrotation
      JOINT right_tibia_foot
      {
        OFFSET 3.006224 -47.83518 -5
        CHANNELS 3 Zrotation Xrotation Yrotation
        End Site
        {
          OFFSET 0 -5 15
        }
      }
    }
  }
  JOINT pelvis_left_femur
  {
    OFFSET 10.78128 -3.44521 -0.5502486
    CHANNELS 3 Zrotation Xrotation Yrotation
    JOINT left_femur_tibia
    {
      OFFSET 0.8047443 -44.0398 -0.1307829
      CHANNELS 3 Zrotation Xrotation Yrotation
      JOINT left_tibia_foot
      {
        OFFSET -4.370144 -48.10324 -4.275266
        CHANNELS 3 Zrotation Xrotation Yrotation
        End Site
        {
          OFFSET 0 -5 15
        }
      }
    }
  }
  JOINT pelvis_spine1
  {
    OFFSET 0 6.468898 -3.129235
    CHANNELS 3 Zrotation Xrotation Yrotation
    JOINT spine1
    {
      OFFSET 0 23.15396 4.99043
      CHANNELS 3 Zrotation Xrotation Yrotation
      JOINT spine2
      {
        OFFSET 0 20.79997 -5.064912
        CHANNELS 3 Zrotation Xrotation Yrotation
        JOINT neck
        {
          OFFSET 0 14.38658 9.616178
          CHANNELS 3 Zrotation Xrotation Yrotation
          End Site
          {
            OFFSET 0 20 0
          }
        }
      }
      JOINT right_manubrium
      {
        OFFSET -5.722621 16.35077 3.967754
        CHANNELS 3 Zrotation Xrotation Yrotation
        JOINT right_clavicle
        {
          OFFSET -13.16364 1.694482 -4.693211
          CHANNELS 3 Zrotation Xrotation Yrotation
          JOINT right_humerus
          {
            OFFSET -28.5034 -0.3100689 -2.792744
            CHANNELS 3 Zrotation Xrotation Yrotation
            JOINT right_radius
            {
              OFFSET -25.15693 0.02248979 -1.271978
              CHANNELS 3 Zrotation Xrotation Yrotation
              End Site
              {
                OFFSET -15 0 0
              }
            }
          }
        }
      }
      JOINT left_manubrium
      {
        OFFSET 5.722621 16.35077 3.967754
        CHANNELS 3 Zrotation Xrotation Yrotation
        JOINT left_clavicle
        {
          OFFSET 13.16364 1.694482 -4.693211
          CHANNELS 3 Zrotation Xrotation Yrotation
          JOINT left_humerus
          {
            OFFSET 29.39168 -1.063119 -2.237045
            CHANNELS 3 Zrotation Xrotation Yrotation
            JOINT left_radius
            {
              OFFSET 24.59957 -0.9528479 0.9047498
              CHANNELS 3 Zrotation Xrotation Yrotation
              End Site
              {
                OFFSET 15 -0 -0
              }
            }
          }
        }
      }
    }
  }
}
MOTION
Frames: 17
Frame Time: 0.0416666666667
0 103.5113 0 3.566631 -0.5129152 -0.09634976 0.7594677 -12.48393 11.28262 -0 40.09686 -0 -4.85294 -16.97096 -5.677102 -8.871527 11.23758 -20.9747 -0 4.624526 -0 12.29069 -16.13513 25.68153 -6.360888 -5.387619 5.311116 1.819601 11.0943 -7.782969 3.18096 22.6123 3.916549 0.4022427 -27.13729 10.39978 7.683636 -15.818 9.852601 78.1406 34.81325 -10.41414 -0 0 21.25897 -12.47888 6.806493 9.870904 6.265767 -21.61564 -3.152203 -92.23815 21.20497 22.53081 0 0 -14.35761 0.785961 12.35982 15.7782
0.1239412 103.4188 1.692804 2.955437 -0.05912372 -0.5081606 2.329001 -16.98787 10.83643 -0 42.05817 -0 -4.755343 -16.24057 -6.242833 -8.40728 11.85966 -20.53089 -0 4.682492 -0 11.88895 -17.18716 25.46729 -6.052772 -4.502361 4.980469 1.808968 11.11815 -7.801543 3.337176 21.89545 4.163558 0.8032743 -27.7603 10.58677 7.590519 -15.79055 10.01734 78.18105 34.59904 -10.67559 -0 0 20.99463 -12.5797 6.936274 10.00854 6.104087 -21.59689 -3.03876 -91.69543 21.01863 21.98668 0 0 -14.61267 1.148693 11.78207 15.65045
0.372316 103.3073 3.888021 2.328708 0.4125865 -0.7943516 3.74833 -21.47256 10.33663 -0 42.30104 -0 -4.680235 -14.97516 -6.636158 -7.951988 12.61011 -20.01823 -0 4.793049 -0 11.37962 -18.28521 25.13609 -5.789345 -3.872773 4.768084 1.9885 11.08535 -7.777359 3.547316 21.08841 4.313296 1.193391 -28.26452 10.70074 7.294597 -15.40511 10.2653 78.36949 34.44059 -11.4267 -0 0 20.2389 -12.62061 7.101034 9.997519 6.221891 -21.6676 -3.021666 -91.08353 20.85028 21.09565 0 0 -15.55233 1.598235 11.27084 15.24723
0.5158836 102.9005 6.085349 1.800702 0.9187846 -1.28319 4.855688 -26.08897 9.919321 -0 39.88568 -0 -4.570194 -13.51517 -6.542394 -7.717835 13.51112 -19.28928 -0 4.988017 -0 10.83188 -19.49224 24.70475 -5.511431 -3.291087 4.427925 2.262143 10.96567 -7.992911 3.473774 20.57727 4.675507 1.467868 -28.47155 10.84629 7.132376 -15.37821 10.32654 78.61551 34.38541 -12.15076 -0 0 19.15872 -12.58242 7.309598 9.860556 6.392255 -21.91198 -2.990095 -90.26833 20.67576 19.85839 0 0 -16.97142 2.219545 10.84235 14.60895
0.665661 102.3121 8.502992 1.439834 1.514595 -1.673744 5.635756 -30.51302 9.615503 -0 35.36169 -0 -4.434345 -11.9542 -5.99947 -7.585977 14.33847 -18.52295 -0 5.285009 -0 10.17241 -20.73336 24.01604 -5.386533 -2.502082 4.115404 2.555114 10.88638 -8.290287 3.428093 20.1179 5.053402 1.785768 -28.56328 11.01105 6.913846 -15.37957 10.4624 79.03635 34.38705 -12.96311 -0 0 17.8955 -12.5046 7.548711 9.683553 6.655126 -22.34562 -3.119257 -89.15726 20.51053 18.28527 0 0 -18.68106 2.99426 10.47366 13.8144
0.8368242 101.4832 11.6533 1.346503 2.206332 -1.886838 6.242551 -34.33787 9.225272 -0 29.38117 -0 -4.270679 -10.49654 -5.175378 -7.628981 15.3519 -17.69346 -0 5.845096 -0 9.32128 -21.92316 22.97565 -5.365716 -1.971973 3.772979 2.712366 10.61643 -8.660804 3.197255 19.77106 5.471286 1.996109 -28.52256 11.05536 6.614991 -15.17209 10.32635 79.7952 34.37678 -14.17977 -0 0 16.48629 -12.38091 7.806644 9.490329 6.97201 -22.76925 -3.048554 -88.0049 20.31072 16.76372 0 0 -20.36509 3.83644 10.13858 12.98169
1.023561 100.5571 15.15799 1.069366 2.998036 -1.692041 6.671409 -37.04178 8.71407 -0 24.24251 -0 -4.2992 -9.155683 -4.438231 -7.632541 16.35657 -16.73861 -0 6.860206 -0 8.188793 -22.81987 21.60173 -5.200613 -1.587801 3.462649 2.991911 10.25286 -9.057874 2.925471 19.67467 5.866664 2.187814 -28.33365 11.02367 6.229629 -15.07606 10.16112 80.53193 34.37102 -15.43842 -0 0 15.05864 -12.2437 8.081348 9.317469 7.434328 -23.19439 -2.964117 -86.83407 20.14119 15.26697 0 0 -22.16733 4.599414 9.812224 12.10223
1.095172 99.72782 19.13193 0.9076971 3.595349 -1.013152 6.977139 -38.78419 8.202816 -0 20.62845 -0 -4.613019 -8.001694 -3.747631 -7.257313 17.31782 -15.756 -0 8.766811 -0 6.584642 -23.08582 19.6954 -4.88661 -1.185878 3.026781 3.21071 9.86119 -9.602539 2.667788 19.55831 6.344767 2.416458 -28.15303 11.1095 5.94146 -14.77172 9.931893 81.80817 34.35887 -17.18632 -0 0 13.4794 -11.9966 8.424489 9.117967 7.518842 -23.75535 -2.892704 -85.67393 19.95545 13.95013 0 0 -23.62895 5.341818 9.498978 11.24482
1.128603 99.22328 23.76975 0.3658382 4.261586 0.05036553 7.166096 -38.80689 7.768057 -0 19.92788 -0 -5.347799 -7.100923 -3.541855 -6.524054 17.80949 -14.68376 -0 11.99404 -0 4.489997 -22.17147 17.4373 -4.185298 -1.02122 2.403319 3.462964 9.494674 -10.16487 2.329742 19.51942 6.768995 2.564665 -27.89166 11.05936 5.723836 -14.44623 9.804034 83.32527 34.35922 -19.05067 -0 0 11.74342 -11.68907 8.823778 8.913223 7.457872 -24.05323 -2.89011 -84.83026 19.76724 13.06943 0 0 -24.70027 5.969588 9.172265 10.52479
1.115259 99.05695 29.228 -0.3735227 4.870538 1.205975 7.50047 -36.95825 7.500834 -0 21.40551 -0 -6.316533 -6.424075 -3.618893 -5.77213 17.59518 -13.47404 -0 17.07982 -0 2.033608 -19.57827 15.01129 -3.159705 -1.315039 1.796838 3.644646 9.154865 -10.61919 1.924326 19.49634 7.064174 2.5882 -27.52182 10.8088 5.498802 -14.03474 9.75517 85.10415 34.35001 -21.02071 -0 0 9.901628 -11.32448 9.279131 8.709727 7.255387 -24.00442 -2.815826 -84.46729 19.58799 12.75019 0 0 -25.43151 6.453503 8.849038 9.922674
1.228069 99.34841 35.35433 -0.7828786 4.905089 1.951925 7.845088 -34.31457 7.398441 -0 22.75059 -0 -7.228938 -6.409355 -3.601162 -5.187726 16.77325 -12.3479 -0 24.26306 -0 -0.6131207 -15.03536 12.27333 -2.032358 -1.592325 1.832353 3.615605 8.863924 -10.36825 1.374336 19.46983 7.266982 2.447497 -27.11625 10.34974 5.423155 -13.41907 10.21871 87.07576 34.31031 -22.89972 -0 0 7.835373 -10.97083 9.767055 8.504157 6.729549 -23.73987 -2.931922 -84.63153 19.47623 12.86443 0 0 -25.83592 6.76757 8.544081 9.414805
1.335203 100.0784 41.77721 -0.9842002 4.246703 1.779565 8.013691 -30.21211 7.122561 -0 23.52496 -0 -7.994022 -7.327122 -3.515637 -4.979806 14.41688 -11.40687 -0 33.63761 -0 -2.636999 -9.486344 10.07412 -1.200313 -1.690484 2.170678 3.480653 8.963525 -9.981486 0.8315531 19.83938 7.299752 2.265282 -26.54461 9.706374 5.357008 -13.16351 10.62117 88.50127 34.33633 -23.91802 -0 0 6.4598 -10.76151 10.2579 8.429802 6.24028 -23.09447 -2.881173 -85.08152 19.41396 13.5849 0 0 -25.78978 6.889632 8.199548 9.089292
1.29506 101.1241 48.02726 -0.8219399 2.929973 1.359355 7.755352 -24.76818 6.483631 -0 23.14423 -0 -8.481666 -8.917598 -3.203028 -4.971063 9.850962 -10.47322 -0 43.88467 -0 -3.641132 -4.602832 8.883071 -0.9130495 -1.334992 3.038964 3.217418 9.219102 -9.410238 0.4273558 20.36231 7.20548 2.145535 -25.94198 9.031396 5.438402 -13.32163 11.05532 89.28023 34.44505 -23.95443 -0 0 5.911781 -10.84388 10.70658 8.566293 5.682425 -22.59978 -2.790444 -85.57303 19.38056 14.41949 0 0 -25.58311 6.86517 7.847066 8.838581
1.463415 102.346 53.82198 -0.07620725 1.545632 1.154501 6.487986 -18.53403 5.346634 -0 21.27393 -0 -8.575453 -10.61017 -2.643454 -4.725161 3.66016 -9.271989 -0 53.07428 -0 -4.338153 -1.357549 8.684495 -1.069721 -0.7134779 4.30659 2.857344 9.430741 -8.657928 0.150919 20.94164 6.965124 2.083139 -25.34301 8.276013 5.448646 -13.86322 11.48543 89.19689 34.67446 -23.1112 -0 0 6.096912 -11.32427 11.08254 8.945531 5.205623 -22.09733 -2.571012 -86.30044 19.42235 15.48385 0 0 -25.17334 6.688326 7.501095 8.740589
1.640287 103.9317 59.70027 1.202976 -0.09570143 0.6239255 4.711283 -11.61112 4.202558 -0 18.48765 -0 -8.233085 -11.96642 -1.837178 -4.491355 -4.272429 -8.56979 -0 59.33185 -0 -3.005443 -1.85171 9.379617 -1.902743 0.1093351 5.797029 2.419405 9.710355 -7.849435 0.04530339 21.53363 6.623994 2.112648 -24.82867 7.543529 5.528564 -14.54841 11.83517 88.50352 34.93408 -21.65244 -0 0 6.786023 -12.19597 11.36579 9.511306 4.785031 -21.64801 -2.393581 -87.10633 19.53812 16.79102 0 0 -24.45021 6.3208 7.137993 8.735026
1.801391 105.1241 65.18174 2.15054 -1.028031 0.4262381 3.29392 -5.321607 3.235438 -0 15.05772 -0 -7.587424 -13.10734 -0.9382688 -4.166412 -11.82804 -7.727467 -0 59.81302 -0 -1.981244 -2.813007 10.64229 -2.518216 0.6109146 7.13264 1.905107 9.601393 -6.829976 0.08242256 21.98837 6.261377 2.202194 -24.23967 6.919341 5.188579 -15.56693 12.08504 87.07514 35.18775 -19.362 -0 0 8.188078 -13.57287 11.49577 10.38605 4.743362 -21.15555 -1.981425 -87.98165 19.63157 18.26651 0 0 -23.69533 5.9037 6.828963 8.838816
2.04038 105.7136 70.64894 2.64577 -1.366579 0.1826022 2.341929 0.1718059 2.47985 -0 11.82726 -0 -6.764872 -14.22094 -0.02278919 -3.131187 -18.44257 -6.639439 -0 55.33476 -0 -1.580005 -3.287063 12.42963 -2.802401 0.7736407 8.046485 1.339761 9.342561 -5.934779 0.1757294 22.11091 5.952254 2.296004 -23.71079 6.432641 4.52883 -16.72918 12.19695 85.13353 35.33176 -16.56653 -0 0 10.08805 -15.26739 11.49371 11.43748 4.854796 -20.49109 -1.592319 -88.88119 19.6632 19.86427 0 0 -22.9009 5.453966 6.525589 8.938927
